<?xml version="1.0" standalone="no"?>
<!DOCTYPE svg PUBLIC "-//W3C//DTD SVG 20010904//EN"
 "http://www.w3.org/TR/2001/REC-SVG-20010904/DTD/svg10.dtd">
<svg version="1.0" xmlns="http://www.w3.org/2000/svg"
 width="219.000000pt" height="131.000000pt" viewBox="0 0 219.000000 131.000000"
 preserveAspectRatio="xMidYMid meet">

<g transform="translate(0.000000,131.000000) scale(0.100000,-0.100000)"
fill="#000000" stroke="none">
<path d="M139 1154 c-17 -21 0 -49 31 -49 31 0 48 28 31 49 -8 9 -21 16 -31
16 -10 0 -23 -7 -31 -16z"/>
<path d="M602 1149 c-26 -8 -38 -20 -50 -49 -10 -21 -25 -41 -34 -44 -24 -6
-23 -37 2 -43 17 -4 20 -15 22 -87 l3 -81 30 0 30 0 3 82 c3 81 3 82 30 85 38
4 38 42 0 46 -44 5 -31 45 17 54 12 2 20 11 20 23 0 24 -25 28 -73 14z"/>
<path d="M985 1090 c-32 -12 -50 -39 -37 -52 8 -8 23 -8 53 0 58 15 88 1 89
-40 0 -10 -32 -53 -71 -97 -96 -109 -93 -116 41 -116 95 0 105 2 108 19 5 26
-15 36 -71 36 l-49 0 46 53 c76 86 82 160 16 194 -28 14 -94 16 -125 3z"/>
<path d="M1270 1087 c-38 -19 -60 -72 -60 -145 0 -109 37 -162 115 -162 78 0
115 53 115 162 0 103 -40 158 -115 158 -16 0 -41 -6 -55 -13z m83 -55 c38 -41
29 -184 -12 -197 -31 -10 -50 5 -62 48 -19 73 6 167 46 167 7 0 19 -8 28 -18z"/>
<path d="M145 1047 c-3 -7 -4 -56 -3 -108 3 -93 3 -94 28 -94 l25 0 0 105 c0
101 -1 105 -23 108 -12 2 -24 -3 -27 -11z"/>
<path d="M262 953 c3 -108 3 -108 28 -108 24 0 25 3 30 70 6 83 12 95 50 95
32 0 37 -14 42 -115 3 -46 5 -50 28 -50 24 0 25 2 28 84 4 107 -9 131 -72 131
-27 0 -48 -6 -57 -16 -11 -14 -13 -14 -21 0 -5 9 -20 16 -34 16 l-25 0 3 -107z"/>
<path d="M728 1044 c-61 -33 -60 -157 2 -189 16 -8 50 -15 75 -15 38 0 52 5
76 29 25 25 29 37 29 81 0 44 -4 56 -29 81 -25 24 -37 29 -78 29 -26 -1 -60
-7 -75 -16z m92 -34 c37 -20 36 -101 -2 -121 -14 -8 -25 -6 -44 6 -33 21 -34
87 -2 109 26 19 24 19 48 6z"/>
<path d="M1623 683 c-20 -8 -16 -51 6 -58 28 -9 51 5 51 30 0 29 -26 41 -57
28z"/>
<path d="M698 669 c-16 -9 -18 -27 -18 -147 0 -75 4 -143 9 -150 4 -8 19 -12
32 -10 21 3 25 9 29 58 l5 55 67 5 c86 6 113 29 113 94 0 53 -22 82 -74 96
-46 13 -141 12 -163 -1z m160 -61 c7 -7 12 -21 12 -33 0 -33 -20 -45 -72 -45
l-48 0 0 45 0 45 48 0 c26 0 53 -5 60 -12z"/>
<path d="M1742 668 c-16 -16 -16 -241 -1 -271 16 -31 28 -37 72 -37 33 0 37 3
37 24 0 18 -6 25 -22 28 -22 3 -23 7 -25 113 -2 61 -5 120 -8 133 -6 24 -33
30 -53 10z"/>
<path d="M997 560 c-34 -27 -48 -79 -36 -125 14 -51 51 -75 114 -75 37 0 60 6
76 19 35 29 14 46 -37 32 -43 -12 -87 3 -92 32 -3 15 6 17 72 17 l76 0 0 31
c0 20 -10 40 -29 60 -37 37 -104 41 -144 9z m114 -47 c8 -22 6 -23 -41 -23
-34 0 -50 4 -50 13 0 41 76 49 91 10z"/>
<path d="M1216 564 c-9 -24 -7 -177 3 -192 4 -8 19 -12 32 -10 22 3 24 8 27
63 4 95 8 107 40 103 26 -3 27 -6 30 -63 4 -95 8 -107 40 -103 26 3 27 6 30
63 4 95 8 107 40 103 26 -3 27 -5 32 -83 l5 -80 30 0 30 0 3 70 c3 80 -2 107
-24 129 -20 21 -82 20 -105 0 -17 -15 -19 -15 -34 0 -18 18 -67 21 -95 6 -13
-7 -21 -7 -25 0 -10 16 -52 12 -59 -6z"/>
<path d="M1616 564 c-8 -20 -8 -168 0 -188 8 -21 50 -21 58 0 8 20 8 168 0
188 -3 9 -16 16 -29 16 -13 0 -26 -7 -29 -16z"/>
<path d="M1887 574 c-4 -4 -7 -41 -7 -81 0 -71 10 -110 34 -125 20 -13 83 -9
96 7 11 14 14 13 24 -1 7 -9 21 -14 32 -12 17 3 19 12 19 108 l0 105 -27 3
-28 3 0 -68 c0 -79 -14 -107 -51 -101 -23 3 -24 7 -29 83 -5 77 -6 80 -30 83
-14 2 -29 0 -33 -4z"/>
<path d="M183 455 c-22 -9 -33 -21 -33 -35 0 -23 20 -26 68 -9 43 15 72 -2 72
-41 0 -23 -15 -46 -66 -99 -48 -52 -65 -76 -62 -93 3 -22 7 -23 106 -26 85 -2
103 0 108 13 11 29 -15 45 -74 45 l-56 0 40 43 c71 74 88 118 68 172 -16 41
-109 57 -171 30z"/>
<path d="M549 453 c-49 -56 -140 -203 -137 -219 3 -16 15 -20 68 -24 62 -5 65
-6 68 -33 3 -24 7 -28 30 -25 21 2 28 9 30 30 2 19 10 28 25 30 30 4 30 42 0
46 -21 3 -22 9 -25 105 -3 94 -5 102 -24 105 -11 2 -27 -5 -35 -15z m1 -143
l0 -50 -35 0 c-19 0 -35 2 -35 5 0 13 58 95 67 95 1 0 3 -22 3 -50z"/>
</g>
</svg>
